<svg xmlns="http://www.w3.org/2000/svg" xmlns:xlink="http://www.w3.org/1999/xlink" width="500" zoomAndPan="magnify" viewBox="0 0 375 149.999998" height="200" preserveAspectRatio="xMidYMid meet" version="1.0"><defs><g><g id="id1"/><g id="id2"/></g><clipPath id="id3"><path d="M 151.496094 12.671875 L 223.464844 12.671875 L 223.464844 84.636719 L 151.496094 84.636719 Z M 151.496094 12.671875 " clip-rule="nonzero"/></clipPath><clipPath id="id4"><path d="M 146.929688 5.816406 L 193 5.816406 L 193 52 L 146.929688 52 Z M 146.929688 5.816406 " clip-rule="nonzero"/></clipPath><clipPath id="id5"><path d="M 154.496094 32.082031 L 204.066406 32.082031 L 204.066406 76.316406 L 154.496094 76.316406 Z M 154.496094 32.082031 " clip-rule="nonzero"/></clipPath><clipPath id="id6"><path d="M 188 11 L 227.929688 11 L 227.929688 52 L 188 52 Z M 188 11 " clip-rule="nonzero"/></clipPath></defs><g clip-path="url(#id3)"><path fill="rgb(100%, 100%, 100%)" d="M 151.496094 12.671875 L 223.464844 12.671875 L 223.464844 84.636719 L 151.496094 84.636719 Z M 151.496094 12.671875 " fill-opacity="1" fill-rule="nonzero"/></g><path fill="rgb(65.098572%, 65.098572%, 65.098572%)" d="M 155.289062 16.460938 L 155.289062 80.851562 L 219.679688 80.851562 L 219.679688 16.460938 L 155.289062 16.460938 M 218.167969 79.339844 L 156.765625 79.339844 L 156.765625 17.941406 L 218.167969 17.941406 L 218.167969 79.339844 " fill-opacity="1" fill-rule="nonzero"/><g clip-path="url(#id4)"><path fill="rgb(40.779114%, 58.81958%, 11.369324%)" d="M 187.421875 5.816406 L 146.972656 46.230469 L 152.050781 51.304688 L 187.421875 15.964844 L 192.5 10.890625 L 187.421875 5.816406 " fill-opacity="1" fill-rule="nonzero"/></g><g clip-path="url(#id5)"><path fill="rgb(53.329468%, 78.42865%, 0%)" d="M 192.792969 48.558594 L 187.429688 43.203125 L 176.304688 32.085938 L 154.558594 53.808594 L 159.636719 58.882812 L 176.304688 42.234375 L 181.636719 47.5625 L 189.699219 55.617188 L 193.847656 59.761719 L 187.429688 66.171875 L 181.015625 59.761719 L 186.589844 54.191406 L 181.511719 49.117188 L 170.855469 59.761719 L 187.425781 76.320312 L 204.007812 59.761719 L 194.511719 50.273438 L 192.792969 48.558594 " fill-opacity="1" fill-rule="nonzero"/></g><path fill="rgb(53.329468%, 78.42865%, 0%)" d="M 198.558594 32.085938 L 188.269531 42.363281 L 193.351562 47.4375 L 198.558594 42.234375 L 215.222656 58.882812 L 220.304688 53.808594 L 198.558594 32.085938 " fill-opacity="1" fill-rule="nonzero"/><g clip-path="url(#id6)"><path fill="rgb(40.779114%, 58.81958%, 11.369324%)" d="M 193.449219 11.835938 L 191.25 14.035156 L 188.371094 16.910156 L 222.8125 51.304688 L 227.890625 46.230469 L 193.449219 11.835938 " fill-opacity="1" fill-rule="nonzero"/></g><g fill="rgb(39.99939%, 65.098572%, 22.349548%)" fill-opacity="0.4"><g transform="translate(5.063987, 130.595809)"><g><path d="M 24.40625 0 L 19.046875 0 L 8.078125 -14.6875 L 8.078125 0 L 2.390625 0 L 2.390625 -23.859375 L 7.734375 -23.859375 L 18.75 -9.140625 L 18.75 -23.859375 L 24.40625 -23.859375 Z M 24.40625 0 "/></g></g></g><g fill="rgb(39.99939%, 65.098572%, 22.349548%)" fill-opacity="0.4"><g transform="translate(32.694572, 130.595809)"><g><path d="M 25.15625 -12.203125 C 25.15625 -9.679688 24.738281 -7.484375 23.90625 -5.609375 C 23.070312 -3.734375 21.796875 -2.269531 20.078125 -1.21875 C 18.367188 -0.175781 16.195312 0.34375 13.5625 0.34375 C 10.925781 0.34375 8.75 -0.175781 7.03125 -1.21875 C 5.320312 -2.269531 4.050781 -3.738281 3.21875 -5.625 C 2.382812 -7.507812 1.96875 -9.710938 1.96875 -12.234375 C 1.96875 -14.753906 2.382812 -16.945312 3.21875 -18.8125 C 4.050781 -20.675781 5.320312 -22.125 7.03125 -23.15625 C 8.75 -24.1875 10.9375 -24.703125 13.59375 -24.703125 C 16.226562 -24.703125 18.394531 -24.1875 20.09375 -23.15625 C 21.800781 -22.125 23.070312 -20.671875 23.90625 -18.796875 C 24.738281 -16.921875 25.15625 -14.722656 25.15625 -12.203125 Z M 7.390625 -12.203125 C 7.390625 -9.660156 7.878906 -7.65625 8.859375 -6.1875 C 9.835938 -4.71875 11.40625 -3.984375 13.5625 -3.984375 C 15.769531 -3.984375 17.347656 -4.71875 18.296875 -6.1875 C 19.253906 -7.65625 19.734375 -9.660156 19.734375 -12.203125 C 19.734375 -14.742188 19.253906 -16.742188 18.296875 -18.203125 C 17.347656 -19.671875 15.78125 -20.40625 13.59375 -20.40625 C 11.414062 -20.40625 9.835938 -19.671875 8.859375 -18.203125 C 7.878906 -16.742188 7.390625 -14.742188 7.390625 -12.203125 Z M 13.328125 7.15625 C 12.554688 7.15625 11.90625 6.972656 11.375 6.609375 C 10.84375 6.242188 10.578125 5.597656 10.578125 4.671875 C 10.578125 3.710938 10.84375 3.054688 11.375 2.703125 C 11.90625 2.359375 12.554688 2.1875 13.328125 2.1875 C 14.078125 2.1875 14.722656 2.359375 15.265625 2.703125 C 15.816406 3.054688 16.09375 3.710938 16.09375 4.671875 C 16.09375 5.597656 15.816406 6.242188 15.265625 6.609375 C 14.722656 6.972656 14.078125 7.15625 13.328125 7.15625 Z M 16.546875 -32.109375 C 16.867188 -31.609375 17.285156 -31.046875 17.796875 -30.421875 C 18.304688 -29.796875 18.832031 -29.1875 19.375 -28.59375 C 19.925781 -28 20.40625 -27.5 20.8125 -27.09375 L 20.8125 -26.65625 L 17.4375 -26.65625 C 16.84375 -27.019531 16.1875 -27.441406 15.46875 -27.921875 C 14.757812 -28.410156 14.117188 -28.960938 13.546875 -29.578125 C 12.960938 -28.960938 12.328125 -28.410156 11.640625 -27.921875 C 10.960938 -27.441406 10.328125 -27.019531 9.734375 -26.65625 L 6.359375 -26.65625 L 6.359375 -27.09375 C 6.765625 -27.519531 7.238281 -28.023438 7.78125 -28.609375 C 8.332031 -29.191406 8.863281 -29.796875 9.375 -30.421875 C 9.882812 -31.046875 10.300781 -31.609375 10.625 -32.109375 Z M 16.546875 -32.109375 "/></g></g></g><g fill="rgb(39.99939%, 65.098572%, 22.349548%)" fill-opacity="0.4"><g transform="translate(60.665852, 130.595809)"><g><path d="M 8.453125 0 L 2.390625 0 L 2.390625 -23.859375 L 8.453125 -23.859375 Z M 8.453125 0 "/></g></g></g><g fill="rgb(39.99939%, 65.098572%, 22.349548%)" fill-opacity="0.4"><g transform="translate(72.351917, 130.595809)"><g/></g></g><g fill="rgb(39.99939%, 65.098572%, 22.349548%)" fill-opacity="0.4"><g transform="translate(81.107995, 130.595809)"><g><path d="M 20.625 -18.984375 L 13.421875 -18.984375 L 13.421875 0 L 7.359375 0 L 7.359375 -18.984375 L 0.234375 -18.984375 L 0.234375 -23.890625 L 20.625 -23.890625 Z M 20.625 -18.984375 "/></g></g></g><g fill="rgb(39.99939%, 65.098572%, 22.349548%)" fill-opacity="0.4"><g transform="translate(102.776419, 130.595809)"><g><path d="M 24.40625 0 L 18.328125 0 L 18.328125 -9.265625 L 8.453125 -9.265625 L 8.453125 0 L 2.390625 0 L 2.390625 -23.859375 L 8.453125 -23.859375 L 8.453125 -14.046875 L 18.328125 -14.046875 L 18.328125 -23.859375 L 24.40625 -23.859375 Z M 24.40625 0 "/></g></g></g><g fill="rgb(39.99939%, 65.098572%, 22.349548%)" fill-opacity="0.4"><g transform="translate(130.407006, 130.595809)"><g><path d="M 17.953125 0 L 16.1875 -5.796875 L 7.328125 -5.796875 L 5.5625 0 L 0 0 L 8.59375 -24.4375 L 14.890625 -24.4375 L 23.515625 0 Z M 14.953125 -10.125 L 13.1875 -15.78125 C 13.070312 -16.164062 12.921875 -16.648438 12.734375 -17.234375 C 12.554688 -17.828125 12.375 -18.429688 12.1875 -19.046875 C 12.007812 -19.660156 11.863281 -20.195312 11.75 -20.65625 C 11.644531 -20.195312 11.492188 -19.628906 11.296875 -18.953125 C 11.097656 -18.285156 10.914062 -17.648438 10.75 -17.046875 C 10.582031 -16.453125 10.453125 -16.03125 10.359375 -15.78125 L 8.625 -10.125 Z M 16.65625 -30.328125 C 17.082031 -30.804688 17.476562 -31.300781 17.84375 -31.8125 C 18.207031 -32.320312 18.570312 -32.941406 18.9375 -33.671875 L 22.953125 -33.671875 L 22.953125 -33.328125 C 22.453125 -32.671875 21.859375 -32.050781 21.171875 -31.46875 C 20.492188 -30.894531 19.828125 -30.367188 19.171875 -29.890625 L 16.65625 -29.890625 Z M 18.109375 -26.65625 L 15.421875 -26.65625 C 14.859375 -27.019531 14.28125 -27.4375 13.6875 -27.90625 C 13.09375 -28.382812 12.5 -28.882812 11.90625 -29.40625 C 11.320312 -28.882812 10.734375 -28.382812 10.140625 -27.90625 C 9.546875 -27.4375 8.96875 -27.019531 8.40625 -26.65625 L 5.703125 -26.65625 L 5.703125 -27.09375 C 6.273438 -27.75 6.882812 -28.5 7.53125 -29.34375 C 8.175781 -30.1875 8.757812 -30.992188 9.28125 -31.765625 L 14.53125 -31.765625 C 15.0625 -30.992188 15.648438 -30.1875 16.296875 -29.34375 C 16.941406 -28.5 17.546875 -27.75 18.109375 -27.09375 Z M 18.109375 -26.65625 "/></g></g></g><g fill="rgb(39.99939%, 65.098572%, 22.349548%)" fill-opacity="0.4"><g transform="translate(154.766907, 130.595809)"><g><path d="M 20.625 -18.984375 L 13.421875 -18.984375 L 13.421875 0 L 7.359375 0 L 7.359375 -18.984375 L 0.234375 -18.984375 L 0.234375 -23.890625 L 20.625 -23.890625 Z M 20.625 -18.984375 "/></g></g></g><g fill="rgb(39.99939%, 65.098572%, 22.349548%)" fill-opacity="0.4"><g transform="translate(176.435331, 130.595809)"><g/></g></g><g fill="rgb(39.99939%, 65.098572%, 22.349548%)" fill-opacity="0.4"><g transform="translate(185.191408, 130.595809)"><g><path d="M 28.59375 0 L 23.234375 0 L 23.203125 -15.5 L 17.484375 -2.390625 L 13.53125 -2.390625 L 7.796875 -15.5 L 7.796875 0 L 2.390625 0 L 2.390625 -23.890625 L 9.03125 -23.890625 L 15.5 -9.671875 L 21.984375 -23.890625 L 28.59375 -23.890625 Z M 28.59375 0 "/></g></g></g><g fill="rgb(39.99939%, 65.098572%, 22.349548%)" fill-opacity="0.4"><g transform="translate(217.046614, 130.595809)"><g><path d="M 8.453125 0 L 2.390625 0 L 2.390625 -23.859375 L 8.453125 -23.859375 Z M 8.453125 0 "/></g></g></g><g fill="rgb(39.99939%, 65.098572%, 22.349548%)" fill-opacity="0.4"><g transform="translate(228.73268, 130.595809)"><g><path d="M 24.40625 0 L 19.046875 0 L 8.078125 -14.6875 L 8.078125 0 L 2.390625 0 L 2.390625 -23.859375 L 7.734375 -23.859375 L 18.75 -9.140625 L 18.75 -23.859375 L 24.40625 -23.859375 Z M 24.40625 0 "/></g></g></g><g fill="rgb(39.99939%, 65.098572%, 22.349548%)" fill-opacity="0.4"><g transform="translate(256.363263, 130.595809)"><g><path d="M 24.40625 0 L 18.328125 0 L 18.328125 -9.265625 L 8.453125 -9.265625 L 8.453125 0 L 2.390625 0 L 2.390625 -23.859375 L 8.453125 -23.859375 L 8.453125 -14.046875 L 18.328125 -14.046875 L 18.328125 -23.859375 L 24.40625 -23.859375 Z M 24.40625 0 "/></g></g></g><g fill="rgb(39.99939%, 65.098572%, 22.349548%)" fill-opacity="0.4"><g transform="translate(283.993845, 130.595809)"><g/></g></g><g fill="rgb(39.99939%, 65.098572%, 22.349548%)" fill-opacity="0.4"><g transform="translate(292.749923, 130.595809)"><g><path d="M 17.921875 0 L 11.625 -9.375 L 8.453125 -5.859375 L 8.453125 0 L 2.390625 0 L 2.390625 -23.859375 L 8.453125 -23.859375 L 8.453125 -13.53125 L 17.578125 -23.859375 L 24.609375 -23.859375 L 15.75 -13.96875 L 25.1875 0 Z M 17.921875 0 "/></g></g></g><g fill="rgb(39.99939%, 65.098572%, 22.349548%)" fill-opacity="0.4"><g transform="translate(319.051782, 130.595809)"><g><path d="M 24.40625 0 L 18.328125 0 L 18.328125 -9.265625 L 8.453125 -9.265625 L 8.453125 0 L 2.390625 0 L 2.390625 -23.859375 L 8.453125 -23.859375 L 8.453125 -14.046875 L 18.328125 -14.046875 L 18.328125 -23.859375 L 24.40625 -23.859375 Z M 24.40625 0 "/></g></g></g><g fill="rgb(39.99939%, 65.098572%, 22.349548%)" fill-opacity="0.4"><g transform="translate(346.682364, 130.595809)"><g><path d="M 18.234375 -4.390625 L 7.796875 -4.390625 L 6.0625 0 L -0.171875 0 L 10.125 -23.859375 L 16.359375 -23.859375 L 26.40625 0 L 19.9375 0 Z M 16.453125 -9 L 13.046875 -17.828125 L 9.578125 -9 Z M 16.453125 -9 "/></g></g></g><g fill="rgb(39.99939%, 65.098572%, 22.349548%)" fill-opacity="1"><g transform="translate(3.557916, 129.089737)"><g><path d="M 24.40625 0 L 19.046875 0 L 8.078125 -14.6875 L 8.078125 0 L 2.390625 0 L 2.390625 -23.859375 L 7.734375 -23.859375 L 18.75 -9.140625 L 18.75 -23.859375 L 24.40625 -23.859375 Z M 24.40625 0 "/></g></g></g><g fill="rgb(39.99939%, 65.098572%, 22.349548%)" fill-opacity="1"><g transform="translate(31.188502, 129.089737)"><g><path d="M 25.15625 -12.203125 C 25.15625 -9.679688 24.738281 -7.484375 23.90625 -5.609375 C 23.070312 -3.734375 21.796875 -2.269531 20.078125 -1.21875 C 18.367188 -0.175781 16.195312 0.34375 13.5625 0.34375 C 10.925781 0.34375 8.75 -0.175781 7.03125 -1.21875 C 5.320312 -2.269531 4.050781 -3.738281 3.21875 -5.625 C 2.382812 -7.507812 1.96875 -9.710938 1.96875 -12.234375 C 1.96875 -14.753906 2.382812 -16.945312 3.21875 -18.8125 C 4.050781 -20.675781 5.320312 -22.125 7.03125 -23.15625 C 8.75 -24.1875 10.9375 -24.703125 13.59375 -24.703125 C 16.226562 -24.703125 18.394531 -24.1875 20.09375 -23.15625 C 21.800781 -22.125 23.070312 -20.671875 23.90625 -18.796875 C 24.738281 -16.921875 25.15625 -14.722656 25.15625 -12.203125 Z M 7.390625 -12.203125 C 7.390625 -9.660156 7.878906 -7.65625 8.859375 -6.1875 C 9.835938 -4.71875 11.40625 -3.984375 13.5625 -3.984375 C 15.769531 -3.984375 17.347656 -4.71875 18.296875 -6.1875 C 19.253906 -7.65625 19.734375 -9.660156 19.734375 -12.203125 C 19.734375 -14.742188 19.253906 -16.742188 18.296875 -18.203125 C 17.347656 -19.671875 15.78125 -20.40625 13.59375 -20.40625 C 11.414062 -20.40625 9.835938 -19.671875 8.859375 -18.203125 C 7.878906 -16.742188 7.390625 -14.742188 7.390625 -12.203125 Z M 13.328125 7.15625 C 12.554688 7.15625 11.90625 6.972656 11.375 6.609375 C 10.84375 6.242188 10.578125 5.597656 10.578125 4.671875 C 10.578125 3.710938 10.84375 3.054688 11.375 2.703125 C 11.90625 2.359375 12.554688 2.1875 13.328125 2.1875 C 14.078125 2.1875 14.722656 2.359375 15.265625 2.703125 C 15.816406 3.054688 16.09375 3.710938 16.09375 4.671875 C 16.09375 5.597656 15.816406 6.242188 15.265625 6.609375 C 14.722656 6.972656 14.078125 7.15625 13.328125 7.15625 Z M 16.546875 -32.109375 C 16.867188 -31.609375 17.285156 -31.046875 17.796875 -30.421875 C 18.304688 -29.796875 18.832031 -29.1875 19.375 -28.59375 C 19.925781 -28 20.40625 -27.5 20.8125 -27.09375 L 20.8125 -26.65625 L 17.4375 -26.65625 C 16.84375 -27.019531 16.1875 -27.441406 15.46875 -27.921875 C 14.757812 -28.410156 14.117188 -28.960938 13.546875 -29.578125 C 12.960938 -28.960938 12.328125 -28.410156 11.640625 -27.921875 C 10.960938 -27.441406 10.328125 -27.019531 9.734375 -26.65625 L 6.359375 -26.65625 L 6.359375 -27.09375 C 6.765625 -27.519531 7.238281 -28.023438 7.78125 -28.609375 C 8.332031 -29.191406 8.863281 -29.796875 9.375 -30.421875 C 9.882812 -31.046875 10.300781 -31.609375 10.625 -32.109375 Z M 16.546875 -32.109375 "/></g></g></g><g fill="rgb(39.99939%, 65.098572%, 22.349548%)" fill-opacity="1"><g transform="translate(59.159781, 129.089737)"><g><path d="M 8.453125 0 L 2.390625 0 L 2.390625 -23.859375 L 8.453125 -23.859375 Z M 8.453125 0 "/></g></g></g><g fill="rgb(39.99939%, 65.098572%, 22.349548%)" fill-opacity="1"><g transform="translate(70.845847, 129.089737)"><g/></g></g><g fill="rgb(39.99939%, 65.098572%, 22.349548%)" fill-opacity="1"><g transform="translate(79.601925, 129.089737)"><g><path d="M 20.625 -18.984375 L 13.421875 -18.984375 L 13.421875 0 L 7.359375 0 L 7.359375 -18.984375 L 0.234375 -18.984375 L 0.234375 -23.890625 L 20.625 -23.890625 Z M 20.625 -18.984375 "/></g></g></g><g fill="rgb(39.99939%, 65.098572%, 22.349548%)" fill-opacity="1"><g transform="translate(101.270349, 129.089737)"><g><path d="M 24.40625 0 L 18.328125 0 L 18.328125 -9.265625 L 8.453125 -9.265625 L 8.453125 0 L 2.390625 0 L 2.390625 -23.859375 L 8.453125 -23.859375 L 8.453125 -14.046875 L 18.328125 -14.046875 L 18.328125 -23.859375 L 24.40625 -23.859375 Z M 24.40625 0 "/></g></g></g><g fill="rgb(39.99939%, 65.098572%, 22.349548%)" fill-opacity="1"><g transform="translate(128.900936, 129.089737)"><g><path d="M 17.953125 0 L 16.1875 -5.796875 L 7.328125 -5.796875 L 5.5625 0 L 0 0 L 8.59375 -24.4375 L 14.890625 -24.4375 L 23.515625 0 Z M 14.953125 -10.125 L 13.1875 -15.78125 C 13.070312 -16.164062 12.921875 -16.648438 12.734375 -17.234375 C 12.554688 -17.828125 12.375 -18.429688 12.1875 -19.046875 C 12.007812 -19.660156 11.863281 -20.195312 11.75 -20.65625 C 11.644531 -20.195312 11.492188 -19.628906 11.296875 -18.953125 C 11.097656 -18.285156 10.914062 -17.648438 10.75 -17.046875 C 10.582031 -16.453125 10.453125 -16.03125 10.359375 -15.78125 L 8.625 -10.125 Z M 16.65625 -30.328125 C 17.082031 -30.804688 17.476562 -31.300781 17.84375 -31.8125 C 18.207031 -32.320312 18.570312 -32.941406 18.9375 -33.671875 L 22.953125 -33.671875 L 22.953125 -33.328125 C 22.453125 -32.671875 21.859375 -32.050781 21.171875 -31.46875 C 20.492188 -30.894531 19.828125 -30.367188 19.171875 -29.890625 L 16.65625 -29.890625 Z M 18.109375 -26.65625 L 15.421875 -26.65625 C 14.859375 -27.019531 14.28125 -27.4375 13.6875 -27.90625 C 13.09375 -28.382812 12.5 -28.882812 11.90625 -29.40625 C 11.320312 -28.882812 10.734375 -28.382812 10.140625 -27.90625 C 9.546875 -27.4375 8.96875 -27.019531 8.40625 -26.65625 L 5.703125 -26.65625 L 5.703125 -27.09375 C 6.273438 -27.75 6.882812 -28.5 7.53125 -29.34375 C 8.175781 -30.1875 8.757812 -30.992188 9.28125 -31.765625 L 14.53125 -31.765625 C 15.0625 -30.992188 15.648438 -30.1875 16.296875 -29.34375 C 16.941406 -28.5 17.546875 -27.75 18.109375 -27.09375 Z M 18.109375 -26.65625 "/></g></g></g><g fill="rgb(39.99939%, 65.098572%, 22.349548%)" fill-opacity="1"><g transform="translate(153.260837, 129.089737)"><g><path d="M 20.625 -18.984375 L 13.421875 -18.984375 L 13.421875 0 L 7.359375 0 L 7.359375 -18.984375 L 0.234375 -18.984375 L 0.234375 -23.890625 L 20.625 -23.890625 Z M 20.625 -18.984375 "/></g></g></g><g fill="rgb(39.99939%, 65.098572%, 22.349548%)" fill-opacity="1"><g transform="translate(174.929261, 129.089737)"><g/></g></g><g fill="rgb(39.99939%, 65.098572%, 22.349548%)" fill-opacity="1"><g transform="translate(183.685338, 129.089737)"><g><path d="M 28.59375 0 L 23.234375 0 L 23.203125 -15.5 L 17.484375 -2.390625 L 13.53125 -2.390625 L 7.796875 -15.5 L 7.796875 0 L 2.390625 0 L 2.390625 -23.890625 L 9.03125 -23.890625 L 15.5 -9.671875 L 21.984375 -23.890625 L 28.59375 -23.890625 Z M 28.59375 0 "/></g></g></g><g fill="rgb(39.99939%, 65.098572%, 22.349548%)" fill-opacity="1"><g transform="translate(215.540544, 129.089737)"><g><path d="M 8.453125 0 L 2.390625 0 L 2.390625 -23.859375 L 8.453125 -23.859375 Z M 8.453125 0 "/></g></g></g><g fill="rgb(39.99939%, 65.098572%, 22.349548%)" fill-opacity="1"><g transform="translate(227.22661, 129.089737)"><g><path d="M 24.40625 0 L 19.046875 0 L 8.078125 -14.6875 L 8.078125 0 L 2.390625 0 L 2.390625 -23.859375 L 7.734375 -23.859375 L 18.75 -9.140625 L 18.75 -23.859375 L 24.40625 -23.859375 Z M 24.40625 0 "/></g></g></g><g fill="rgb(39.99939%, 65.098572%, 22.349548%)" fill-opacity="1"><g transform="translate(254.857193, 129.089737)"><g><path d="M 24.40625 0 L 18.328125 0 L 18.328125 -9.265625 L 8.453125 -9.265625 L 8.453125 0 L 2.390625 0 L 2.390625 -23.859375 L 8.453125 -23.859375 L 8.453125 -14.046875 L 18.328125 -14.046875 L 18.328125 -23.859375 L 24.40625 -23.859375 Z M 24.40625 0 "/></g></g></g><g fill="rgb(39.99939%, 65.098572%, 22.349548%)" fill-opacity="1"><g transform="translate(282.487775, 129.089737)"><g/></g></g><g fill="rgb(39.99939%, 65.098572%, 22.349548%)" fill-opacity="1"><g transform="translate(291.243853, 129.089737)"><g><path d="M 17.921875 0 L 11.625 -9.375 L 8.453125 -5.859375 L 8.453125 0 L 2.390625 0 L 2.390625 -23.859375 L 8.453125 -23.859375 L 8.453125 -13.53125 L 17.578125 -23.859375 L 24.609375 -23.859375 L 15.75 -13.96875 L 25.1875 0 Z M 17.921875 0 "/></g></g></g><g fill="rgb(39.99939%, 65.098572%, 22.349548%)" fill-opacity="1"><g transform="translate(317.545712, 129.089737)"><g><path d="M 24.40625 0 L 18.328125 0 L 18.328125 -9.265625 L 8.453125 -9.265625 L 8.453125 0 L 2.390625 0 L 2.390625 -23.859375 L 8.453125 -23.859375 L 8.453125 -14.046875 L 18.328125 -14.046875 L 18.328125 -23.859375 L 24.40625 -23.859375 Z M 24.40625 0 "/></g></g></g><g fill="rgb(39.99939%, 65.098572%, 22.349548%)" fill-opacity="1"><g transform="translate(345.176294, 129.089737)"><g><path d="M 18.234375 -4.390625 L 7.796875 -4.390625 L 6.0625 0 L -0.171875 0 L 10.125 -23.859375 L 16.359375 -23.859375 L 26.40625 0 L 19.9375 0 Z M 16.453125 -9 L 13.046875 -17.828125 L 9.578125 -9 Z M 16.453125 -9 "/></g></g></g></svg>